<svg width="352" height="444" viewBox="0 0 352 444" fill="none" xmlns="http://www.w3.org/2000/svg">
<path d="M346.91 311.2C345.57 358.64 334.38 407.88 256.94 407.88H142.81C126.7 407.88 113.71 406.09 113.71 378.78V56.97C113.71 53.76 113.9 50.94 114.23 48.4H100.2C100.53 50.94 100.72 53.76 100.72 56.97V378.79C100.72 406.09 87.7399 407.89 71.6299 407.89V411.92H346.45L351.38 311.21H346.91V311.2Z" fill="#BA8089"/>
<path d="M306.77 30.69H5.08987L0.609863 117.97H4.63989C5.97989 70.53 17.6199 35.17 94.6099 35.17H120.57C136.23 35.17 149.22 36.51 149.22 64.26V386.08C149.22 387.48 149.16 388.76 149.1 390.03H162.33C162.26 388.76 162.2 387.48 162.2 386.08V64.26C162.2 36.51 175.63 35.17 191.3 35.17H217.26C294.25 35.17 305.88 70.53 307.22 117.97H311.25L306.77 30.69Z" fill="#BA8089"/>
<path d="M193.01 13.88C152.81 13.8 112.6 13.73 72.3998 13.65C70.1198 9.41999 67.8298 5.19001 65.5498 0.950012H198.94C196.96 5.26001 194.98 9.57 193.01 13.88Z" fill="#BA8089"/>
<path d="M71.4698 430.12C111.67 430.2 151.88 430.27 192.08 430.35C194.36 434.58 196.65 438.81 198.93 443.05H65.5498C67.5198 438.74 69.4998 434.43 71.4698 430.12Z" fill="#BA8089"/>
</svg>
